<mxfile host="Electron" agent="Mozilla/5.0 (X11; Linux x86_64) AppleWebKit/537.36 (KHTML, like Gecko) draw.io/25.0.1 Chrome/128.0.6613.186 Electron/32.2.6 Safari/537.36" version="25.0.1">
  <diagram name="Page-1" id="idGJsESFQ0PXwunGHO3U">
    <mxGraphModel dx="1368" dy="958" grid="1" gridSize="10" guides="1" tooltips="1" connect="1" arrows="1" fold="1" page="1" pageScale="1" pageWidth="850" pageHeight="1100" math="0" shadow="0">
      <root>
        <mxCell id="0" />
        <mxCell id="1" parent="0" />
        <mxCell id="FMwVvf7l9zC-YHbEqCDa-7" value="" style="group" vertex="1" connectable="0" parent="1">
          <mxGeometry x="360" y="178" width="81" height="102" as="geometry" />
        </mxCell>
        <mxCell id="FMwVvf7l9zC-YHbEqCDa-1" value="" style="endArrow=none;html=1;rounded=0;" edge="1" parent="FMwVvf7l9zC-YHbEqCDa-7">
          <mxGeometry width="50" height="50" relative="1" as="geometry">
            <mxPoint x="40" y="102" as="sourcePoint" />
            <mxPoint x="80" y="62" as="targetPoint" />
          </mxGeometry>
        </mxCell>
        <mxCell id="FMwVvf7l9zC-YHbEqCDa-2" value="" style="endArrow=none;html=1;rounded=0;" edge="1" parent="FMwVvf7l9zC-YHbEqCDa-7">
          <mxGeometry width="50" height="50" relative="1" as="geometry">
            <mxPoint x="40" y="102" as="sourcePoint" />
            <mxPoint y="62" as="targetPoint" />
          </mxGeometry>
        </mxCell>
        <mxCell id="FMwVvf7l9zC-YHbEqCDa-3" value="" style="endArrow=none;html=1;rounded=0;" edge="1" parent="FMwVvf7l9zC-YHbEqCDa-7">
          <mxGeometry width="50" height="50" relative="1" as="geometry">
            <mxPoint x="40" y="41" as="sourcePoint" />
            <mxPoint y="1" as="targetPoint" />
          </mxGeometry>
        </mxCell>
        <mxCell id="FMwVvf7l9zC-YHbEqCDa-4" value="" style="endArrow=none;html=1;rounded=0;" edge="1" parent="FMwVvf7l9zC-YHbEqCDa-7">
          <mxGeometry width="50" height="50" relative="1" as="geometry">
            <mxPoint x="41" y="40" as="sourcePoint" />
            <mxPoint x="81" as="targetPoint" />
          </mxGeometry>
        </mxCell>
        <mxCell id="FMwVvf7l9zC-YHbEqCDa-5" value="" style="endArrow=none;html=1;rounded=0;" edge="1" parent="FMwVvf7l9zC-YHbEqCDa-7">
          <mxGeometry width="50" height="50" relative="1" as="geometry">
            <mxPoint x="80" y="2" as="sourcePoint" />
            <mxPoint x="80" y="62" as="targetPoint" />
          </mxGeometry>
        </mxCell>
        <mxCell id="FMwVvf7l9zC-YHbEqCDa-6" value="" style="endArrow=none;html=1;rounded=0;" edge="1" parent="FMwVvf7l9zC-YHbEqCDa-7">
          <mxGeometry width="50" height="50" relative="1" as="geometry">
            <mxPoint y="2" as="sourcePoint" />
            <mxPoint y="62" as="targetPoint" />
          </mxGeometry>
        </mxCell>
      </root>
    </mxGraphModel>
  </diagram>
</mxfile>
